<svg width="340" height="340" viewBox="0 0 340 340" xmlns="http://www.w3.org/2000/svg">
  <defs>
    <linearGradient id="cyanBlue" x1="0%" y1="0%" x2="100%" y2="100%">
      <stop offset="0%" style="stop-color:#22D3EE;stop-opacity:1" />
      <stop offset="100%" style="stop-color:#3B82F6;stop-opacity:1" />
    </linearGradient>
  </defs>
  
  <!-- Outer Circle Arc (top) -->
  <path d="M 50 150 Q 170 100 290 150" fill="none" stroke="url(#cyanBlue)" stroke-width="4"/>
  
  <!-- Main Circle -->
  <circle cx="170" cy="170" r="100" fill="none" stroke="url(#cyanBlue)" stroke-width="4" opacity="0.7"/>
  
  <!-- Inner Circle Arc (bottom) -->
  <path d="M 80 170 A 90 90 0 0 0 260 170" fill="none" stroke="url(#cyanBlue)" stroke-width="4"/>
  
  <!-- Triangle with horizontal lines -->
  <g>
    <!-- Triangle outline -->
    <path d="M 170 70 L 80 270 L 260 270 Z" fill="none" stroke="url(#cyanBlue)" stroke-width="3"/>
    
    <!-- Horizontal lines creating striped pattern -->
    <line x1="82" y1="265" x2="258" y2="265" stroke="url(#cyanBlue)" stroke-width="2"/>
    <line x1="85" y1="258" x2="255" y2="258" stroke="url(#cyanBlue)" stroke-width="2"/>
    <line x1="88" y1="251" x2="252" y2="251" stroke="url(#cyanBlue)" stroke-width="2"/>
    <line x1="91" y1="244" x2="249" y2="244" stroke="url(#cyanBlue)" stroke-width="2"/>
    <line x1="94" y1="237" x2="246" y2="237" stroke="url(#cyanBlue)" stroke-width="2"/>
    <line x1="97" y1="230" x2="243" y2="230" stroke="url(#cyanBlue)" stroke-width="2"/>
    <line x1="100" y1="223" x2="240" y2="223" stroke="url(#cyanBlue)" stroke-width="2"/>
    <line x1="103" y1="216" x2="237" y2="216" stroke="url(#cyanBlue)" stroke-width="2"/>
    <line x1="106" y1="209" x2="234" y2="209" stroke="url(#cyanBlue)" stroke-width="2"/>
    <line x1="109" y1="202" x2="231" y2="202" stroke="url(#cyanBlue)" stroke-width="2"/>
    <line x1="112" y1="195" x2="228" y2="195" stroke="url(#cyanBlue)" stroke-width="2"/>
    <line x1="115" y1="188" x2="225" y2="188" stroke="url(#cyanBlue)" stroke-width="2"/>
    <line x1="118" y1="181" x2="222" y2="181" stroke="url(#cyanBlue)" stroke-width="2"/>
    <line x1="121" y1="174" x2="219" y2="174" stroke="url(#cyanBlue)" stroke-width="2"/>
    <line x1="124" y1="167" x2="216" y2="167" stroke="url(#cyanBlue)" stroke-width="2"/>
    <line x1="127" y1="160" x2="213" y2="160" stroke="url(#cyanBlue)" stroke-width="2"/>
    <line x1="130" y1="153" x2="210" y2="153" stroke="url(#cyanBlue)" stroke-width="2"/>
    <line x1="133" y1="146" x2="207" y2="146" stroke="url(#cyanBlue)" stroke-width="2"/>
    <line x1="136" y1="139" x2="204" y2="139" stroke="url(#cyanBlue)" stroke-width="2"/>
    <line x1="139" y1="132" x2="201" y2="132" stroke="url(#cyanBlue)" stroke-width="2"/>
    <line x1="142" y1="125" x2="198" y2="125" stroke="url(#cyanBlue)" stroke-width="2"/>
    <line x1="145" y1="118" x2="195" y2="118" stroke="url(#cyanBlue)" stroke-width="2"/>
    <line x1="148" y1="111" x2="192" y2="111" stroke="url(#cyanBlue)" stroke-width="2"/>
    <line x1="151" y1="104" x2="189" y2="104" stroke="url(#cyanBlue)" stroke-width="2"/>
    <line x1="154" y1="97" x2="186" y2="97" stroke="url(#cyanBlue)" stroke-width="2"/>
    <line x1="157" y1="90" x2="183" y2="90" stroke="url(#cyanBlue)" stroke-width="2"/>
    <line x1="160" y1="83" x2="180" y2="83" stroke="url(#cyanBlue)" stroke-width="2"/>
  </g>
  
  <!-- Shield/Lock in center -->
  <g transform="translate(170, 150)">
    <rect x="-15" y="0" width="30" height="25" rx="2" fill="none" stroke="url(#cyanBlue)" stroke-width="2.5"/>
    <path d="M -10 0 L -10 -8 A 10 10 0 0 1 10 -8 L 10 0" fill="none" stroke="url(#cyanBlue)" stroke-width="2.5"/>
    <circle cx="0" cy="12" r="4" fill="url(#cyanBlue)"/>
  </g>
  
  <!-- Light bulb (top right) -->
  <g transform="translate(280, 100)">
    <circle cx="0" cy="0" r="12" fill="none" stroke="#FCD34D" stroke-width="2.5"/>
    <path d="M -8 8 L -8 14 L 8 14 L 8 8" fill="none" stroke="#FCD34D" stroke-width="2.5"/>
    <line x1="-8" y1="16" x2="8" y2="16" stroke="#FCD34D" stroke-width="2.5"/>
    <!-- Light rays -->
    <line x1="0" y1="-18" x2="0" y2="-24" stroke="#FCD34D" stroke-width="2"/>
    <line x1="13" y1="-13" x2="18" y2="-18" stroke="#FCD34D" stroke-width="2"/>
    <line x1="18" y1="0" x2="24" y2="0" stroke="#FCD34D" stroke-width="2"/>
    <line x1="13" y1="13" x2="18" y2="18" stroke="#FCD34D" stroke-width="2"/>
    <line x1="-13" y1="-13" x2="-18" y2="-18" stroke="#FCD34D" stroke-width="2"/>
    <line x1="-18" y1="0" x2="-24" y2="0" stroke="#FCD34D" stroke-width="2"/>
  </g>
  
  <!-- Text: IGL SIPFI -->
  <text x="170" y="310" font-family="Arial, sans-serif" font-size="42" font-weight="bold" text-anchor="middle" fill="#E0E7FF" letter-spacing="6">IGL SIPFI</text>
</svg>
